inDegrees=yes
name=ik_S41_A13_T02
DataType=double
version=3
OpenSimVersion=4.3-2021-08-27-4bc7ad9
endheader
time	pelvis_tilt	pelvis_list	pelvis_rotation	pelvis_tx	pelvis_ty	pelvis_tz	hip_flexion_r	hip_adduction_r	hip_rotation_r	knee_angle_r	knee_angle_r_beta	ankle_angle_r	subtalar_angle_r	mtp_angle_r	hip_flexion_l	hip_adduction_l	hip_rotation_l	knee_angle_l	knee_angle_l_beta	ankle_angle_l	subtalar_angle_l	mtp_angle_l	lumbar_extension	lumbar_bending	lumbar_rotation	arm_flex_r	arm_add_r	arm_rot_r	elbow_flex_r	pro_sup_r	wrist_flex_r	wrist_dev_r	arm_flex_l	arm_add_l	arm_rot_l	elbow_flex_l	pro_sup_l	wrist_flex_l	wrist_dev_l
10.53999999999986	0.727659931858437	-1.568618762378377	43.80628823352939	0	0.9399999999999999	0	31.30998185175221	-9.46602471759984	-8.775887729415762	35.89014964667757	0.6264012803680031	0	0	0	31.30998185175221	-9.46602471759984	-8.775887729415762	35.89014964667757	0.6264012803680031	0	0	0	0.6421692478233331	-0.8003592714504483	19.70328065432114	72.87739230512847	-9.191888448640952	4.369098229617252	39.95320629698124	137.3038746364473	0	0	64.1278999602339	17.68499103380404	21.19728531958271	54.05412924386167	25.84197831724977	0	0
10.55999999999986	0.7425740266384582	-1.553463578722015	43.79722734446805	0	0.9399999999999999	0	31.46571453353203	-9.479877258714717	-8.799715357219409	36.09003402363764	0.6298899208692539	0	0	0	31.46571453353203	-9.479877258714717	-8.799715357219409	36.09003402363764	0.6298899208692539	0	0	0	0.6629029260040089	-0.8055254216506595	19.8586115906342	73.07849083036648	-10.24632355412075	1.45645086713639	40.17952643017514	135.4650633038105	0	0	63.13175228002142	16.65485790490554	22.29369527363987	54.95663872230715	27.73869585778839	0	0
10.57999999999986	0.7454423979504553	-1.518924864018042	43.76438828013799	0	0.9399999999999999	0	31.67877456905497	-9.498909888076216	-8.832412352263853	36.36049675744047	0.6346103860780581	0	0	0	31.67877456905497	-9.498909888076216	-8.832412352263853	36.36049675744047	0.6346103860780581	0	0	0	0.6876922560436105	-0.7915953380813167	20.00175372578216	73.39886015995502	-11.85357387511648	-1.442905512729254	40.60014290249388	132.8519592262957	0	0	62.32267468420721	15.59683547113954	22.35572047079818	54.84363986808709	30.72271618384717	0	0
10.59999999999986	0.7730622154633672	-1.457932765209535	43.86595703847647	0	0.9399999999999999	0	31.95868408179339	-9.522923900116801	-8.874445597151672	36.71823545989298	0.6408541042976669	0	0	0	31.95868408179339	-9.522923900116801	-8.874445597151672	36.71823545989298	0.6408541042976669	0	0	0	0.7382095616534174	-0.7800526513197777	20.05858268842535	73.59883654003934	-13.77708498473166	-3.984148549264457	41.62340282002398	130.2977870952218	0	0	61.52210571415453	14.50877576002366	21.43916880161095	54.62200717921546	32.6706446048214	0	0
10.61999999999986	0.8252174392047048	-1.411177231461564	44.10645633085045	0	0.9399999999999999	0	32.27069364582319	-9.548446858160942	-8.92012866489082	37.1187611542934	0.6478445964037907	0	0	0	32.27069364582319	-9.548446858160942	-8.92012866489082	37.1187611542934	0.6478445964037907	0	0	0	0.7955869064418004	-0.79614906173898	19.99346390629617	73.85042917172125	-15.74792870391531	-6.500226348158003	43.3565614242019	128.710055325568	0	0	60.70570817662861	13.39622473143886	19.95942864106477	54.06488240334363	34.56707450670115	0	0
10.63999999999986	0.8488218215413579	-1.39613072699706	44.25985996684042	0	0.9399999999999999	0	32.5820467710702	-9.573186932022043	-8.964990461882616	37.51852490395233	0.6548217900654575	0	0	0	32.5820467710702	-9.573186932022043	-8.964990461882616	37.51852490395233	0.6548217900654575	0	0	0	0.8095820461542919	-0.813022850155889	19.90853156004819	74.39844366210212	-17.83715653892764	-8.895150890423716	45.53639879457808	127.3352903474532	0	0	59.95670887682008	12.11933267371822	18.24386614615744	53.29029245979628	36.62375666413694	0	0
10.65999999999986	0.999990549694166	-1.339947915163972	44.29477804023509	0	0.9399999999999999	0	32.60125475984542	-9.575421554268519	-8.968474570348702	37.53751035813748	0.6551531487509749	0	0	0	32.60125475984542	-9.575421554268519	-8.968474570348702	37.53751035813748	0.6551531487509749	0	0	0	0.9578457453677274	-0.8776057221210164	20.10213600470136	74.88363522840716	-20.25451202621271	-11.31523806186696	47.91799570042652	125.5101205195791	0	0	58.83976408888799	10.75924656899618	17.12814922294314	52.57019631097734	38.52302179768212	0	0
10.67999999999986	1.028096006197861	-1.328534630085697	44.02119162398297	0	0.9399999999999999	0	32.61162826111755	-9.576621939584754	-8.970350569238592	37.54779042024075	0.6553325696819864	0	0	0	32.61162826111755	-9.576621939584754	-8.970350569238592	37.54779042024075	0.6553325696819864	0	0	0	0.9953048687512471	-0.8912201347826135	20.43240499109322	75.8546022758448	-22.91066164961751	-13.11919978291147	50.53931268198335	123.0783757445807	0	0	57.78347813740563	9.090976311498249	16.52691322924741	53.41929929947209	39.08788687829419	0	0
10.69999999999986	1.083446016358437	-1.319053449028553	43.65902384555739	0	0.9399999999999999	0	32.62132566949006	-9.577739173020502	-8.972100159921434	37.55741649393499	0.6555005763619906	0	0	0	32.62132566949006	-9.577739173020502	-8.972100159921434	37.55741649393499	0.6555005763619906	0	0	0	1.05952345561032	-0.9223025445396077	20.97391122535141	77.0149560165233	-26.15546776249993	-14.65495228584151	55.84349399118963	120.4597092439128	0	0	56.29175154025445	7.446039678492273	16.4825270405804	53.7869298833596	40.30206150714133	0	0
10.71999999999986	1.176852348951597	-1.313740593304996	43.19015216795936	0	0.9399999999999999	0	32.64067678699556	-9.57997226434596	-8.975596516485925	37.57656049473194	0.6558347022079017	0	0	0	32.64067678699556	-9.57997226434596	-8.975596516485925	37.57656049473194	0.6558347022079017	0	0	0	1.14735611502559	-0.9867034798427544	21.56300917759306	78.32904756175139	-29.44682923092368	-15.44274014766855	59.03094877461768	118.9963182536015	0	0	54.48723388965	5.968788593927188	16.46487575296839	52.29880169826629	43.98480658107999	0	0
10.73999999999986	1.256586796909972	-1.337743940987232	42.63671460386045	0	0.9399999999999999	0	32.65419725238932	-9.581527034219805	-8.978034939803955	37.58994981720657	0.6560683899696952	0	0	0	32.65419725238932	-9.581527034219805	-8.978034939803955	37.58994981720657	0.6560683899696952	0	0	0	1.204829524407787	-1.061997655751898	22.21349383733783	80.04281766799978	-32.83288559395602	-15.86971661701199	62.20599419885711	117.1823779306789	0	0	52.64948463883268	4.205386580660557	16.83289535108971	53.85620160746461	44.7418704307948	0	0
10.75999999999986	1.347358764283296	-1.321586737738421	42.02052982405674	0	0.9399999999999999	0	32.67307221509515	-9.583689893510684	-8.981433424095783	37.60864432913908	0.6563946707549708	0	0	0	32.67307221509515	-9.583689893510684	-8.981433424095783	37.60864432913908	0.6563946707549708	0	0	0	1.301305660226392	-1.121654326143193	22.89272121074248	81.89720106476484	-36.53736116640703	-16.33287165343763	65.58890715943448	116.0055790760279	0	0	50.47177949356416	2.715287969149276	16.26530621390392	51.84012939862405	49.54847423852354	0	0
10.77999999999986	1.384089963509129	-1.306828721826391	41.28970368752015	0	0.9399999999999999	0	32.68926362556494	-9.58553712492956	-8.984342295462053	37.62469575144074	0.6566748209237629	0	0	0	32.68926362556494	-9.58553712492956	-8.984342295462053	37.62469575144074	0.6566748209237629	0	0	0	1.35643592713435	-1.139199518688126	23.59708538245218	84.28595194917928	-40.56817723530496	-16.22938998191584	68.77718764456749	114.4397939719412	0	0	48.43170084879817	1.224249526286123	15.35343540845377	50.98687461030388	52.64288577098733	0	0
10.79999999999986	1.472287698107505	-1.297503898997674	40.64619496330401	0	0.9399999999999999	0	32.70638425242218	-9.587485636495362	-8.987414589709621	37.64167051500714	0.6569710864377442	0	0	0	32.70638425242218	-9.587485636495362	-8.987414589709621	37.64167051500714	0.6569710864377442	0	0	0	1.440080910797315	-1.190474334324622	24.22064237379486	86.99271251882013	-44.27601543407471	-16.03312417023958	72.09688931430388	113.3621768153804	0	0	46.2753914838606	-0.2319774691226278	14.08923438246304	49.65539456113436	56.2490115607111	0	0
10.81999999999986	1.562458640493946	-1.253150852538436	40.13899122077808	0	0.9399999999999999	0	32.84760247442341	-9.598724835765212	-9.007782423063951	37.82087054614216	0.6600987170007266	0	0	0	32.84760247442341	-9.598724835765212	-9.007782423063951	37.82087054614216	0.6600987170007266	0	0	0	1.583852371426926	-1.243449435661608	24.66050121250772	90.14852987294957	-48.04866862317567	-15.41592367573437	72.13594870097852	111.2573186241216	0	0	46.01164062450641	-0.01014146851229604	13.22180894003092	43.99668160155236	61.73097508978498	0	0
10.83999999999986	1.70405923957857	-1.216344582710238	39.76043852955693	0	0.9399999999999999	0	32.88605976945617	-9.602948658030588	-9.014553565432356	37.85929670449508	0.6607693799828779	0	0	0	32.88605976945617	-9.602948658030588	-9.014553565432356	37.85929670449508	0.6607693799828779	0	0	0	1.701912101540579	-1.298411877339214	24.85959525688103	93.68470030534827	-51.92153296805694	-14.06980653876477	74.99023214455069	109.1624313014429	0	0	41.82293040689166	-3.018792393307443	10.87207528050074	46.19491707221834	64.57310124063036	0	0
10.85999999999986	1.819632588009684	-1.240054474586338	38.81857254110563	0	0.9399999999999999	0	32.9025308945572	-9.604774579798962	-9.017469965752129	37.87564899072957	0.6610547812178983	0	0	0	32.9025308945572	-9.604774579798962	-9.017469965752129	37.87564899072957	0.6610547812178983	0	0	0	1.799424223143587	-1.389090472213685	25.63554909638046	97.6615084434777	-56.15094655498061	-12.80183574962351	78.22080136349037	108.8854050376559	0	0	39.57117921951208	-4.544770767936355	9.021320334982045	44.18583650832579	68.17682779527885	0	0
10.87999999999986	1.907313414520408	-1.34524723248923	37.93078624654295	0	0.9399999999999999	0	32.92448969354092	-9.607210661058243	-9.021361092542193	37.89740234706542	0.6614344489093185	0	0	0	32.92448969354092	-9.607210661058243	-9.021361092542193	37.89740234706542	0.6614344489093185	0	0	0	1.828427664915842	-1.530890558492782	26.52981740442747	102.7664020629772	-60.4910437779866	-10.88874100664212	81.08691959710774	109.4881732382115	0	0	37.17232222993264	-5.92724768737718	7.329435497456341	42.26684387436006	70.53086332132951	0	0
